<svg width="196" height="196" viewBox="0 0 196 196" fill="none" xmlns="http://www.w3.org/2000/svg">
    <g filter="url(#filter0_b_7_2051)">
        <path d="M98.3877 0.853546L103.383 3.03186L108.579 1.38766L113.32 4.07623L118.659 2.98415L123.093 6.15351L128.517 5.62553L132.595 9.24097L138.045 9.28287L141.722 13.3047L147.138 13.9161L150.375 18.3003L155.697 19.4744L158.458 24.173L163.628 25.8969L165.883 30.8584L170.844 33.1133L172.568 38.2833L177.267 41.0445L178.441 46.3664L182.825 49.6035L183.436 55.019L187.458 58.6967L187.5 64.1464L191.116 68.2244L190.588 73.6486L193.757 78.0822L192.665 83.4215L195.354 88.162L193.709 93.3579L195.888 98.3535L193.709 103.349L195.354 108.545L192.665 113.286L193.757 118.625L190.588 123.058L191.116 128.483L187.5 132.561L187.458 138.01L183.436 141.688L182.825 147.104L178.441 150.341L177.267 155.663L172.568 158.424L170.844 163.594L165.883 165.849L163.628 170.81L158.458 172.534L155.697 177.233L150.375 178.407L147.138 182.791L141.722 183.402L138.045 187.424L132.595 187.466L128.517 191.082L123.093 190.554L118.659 193.723L113.32 192.631L108.579 195.319L103.383 193.675L98.3877 195.854L93.3921 193.675L88.1962 195.319L83.4556 192.631L78.1163 193.723L73.6828 190.554L68.2585 191.082L64.1806 187.466L58.7309 187.424L55.0532 183.402L49.6377 182.791L46.4005 178.407L41.0786 177.233L38.3175 172.534L33.1475 170.81L30.8926 165.849L25.9311 163.594L24.2072 158.424L19.5085 155.663L18.3345 150.341L13.9502 147.104L13.3389 141.688L9.31702 138.01L9.27512 132.561L5.65968 128.483L6.18766 123.058L3.0183 118.625L4.11037 113.286L1.42181 108.545L3.06601 103.349L0.887695 98.3535L3.06601 93.3579L1.42181 88.162L4.11037 83.4215L3.0183 78.0822L6.18766 73.6486L5.65968 68.2244L9.27512 64.1464L9.31702 58.6967L13.3389 55.019L13.9502 49.6035L18.3345 46.3664L19.5085 41.0445L24.2072 38.2833L25.9311 33.1133L30.8926 30.8584L33.1475 25.8969L38.3175 24.173L41.0786 19.4744L46.4005 18.3003L49.6377 13.9161L55.0532 13.3047L58.7309 9.28287L64.1806 9.24097L68.2585 5.62553L73.6828 6.15351L78.1163 2.98415L83.4556 4.07623L88.1962 1.38766L93.3921 3.03186L98.3877 0.853546Z"
              fill="#666666" fill-opacity="0.1"/>
        <path d="M98.3877 0.853546L103.383 3.03186L108.579 1.38766L113.32 4.07623L118.659 2.98415L123.093 6.15351L128.517 5.62553L132.595 9.24097L138.045 9.28287L141.722 13.3047L147.138 13.9161L150.375 18.3003L155.697 19.4744L158.458 24.173L163.628 25.8969L165.883 30.8584L170.844 33.1133L172.568 38.2833L177.267 41.0445L178.441 46.3664L182.825 49.6035L183.436 55.019L187.458 58.6967L187.5 64.1464L191.116 68.2244L190.588 73.6486L193.757 78.0822L192.665 83.4215L195.354 88.162L193.709 93.3579L195.888 98.3535L193.709 103.349L195.354 108.545L192.665 113.286L193.757 118.625L190.588 123.058L191.116 128.483L187.5 132.561L187.458 138.01L183.436 141.688L182.825 147.104L178.441 150.341L177.267 155.663L172.568 158.424L170.844 163.594L165.883 165.849L163.628 170.81L158.458 172.534L155.697 177.233L150.375 178.407L147.138 182.791L141.722 183.402L138.045 187.424L132.595 187.466L128.517 191.082L123.093 190.554L118.659 193.723L113.32 192.631L108.579 195.319L103.383 193.675L98.3877 195.854L93.3921 193.675L88.1962 195.319L83.4556 192.631L78.1163 193.723L73.6828 190.554L68.2585 191.082L64.1806 187.466L58.7309 187.424L55.0532 183.402L49.6377 182.791L46.4005 178.407L41.0786 177.233L38.3175 172.534L33.1475 170.81L30.8926 165.849L25.9311 163.594L24.2072 158.424L19.5085 155.663L18.3345 150.341L13.9502 147.104L13.3389 141.688L9.31702 138.01L9.27512 132.561L5.65968 128.483L6.18766 123.058L3.0183 118.625L4.11037 113.286L1.42181 108.545L3.06601 103.349L0.887695 98.3535L3.06601 93.3579L1.42181 88.162L4.11037 83.4215L3.0183 78.0822L6.18766 73.6486L5.65968 68.2244L9.27512 64.1464L9.31702 58.6967L13.3389 55.019L13.9502 49.6035L18.3345 46.3664L19.5085 41.0445L24.2072 38.2833L25.9311 33.1133L30.8926 30.8584L33.1475 25.8969L38.3175 24.173L41.0786 19.4744L46.4005 18.3003L49.6377 13.9161L55.0532 13.3047L58.7309 9.28287L64.1806 9.24097L68.2585 5.62553L73.6828 6.15351L78.1163 2.98415L83.4556 4.07623L88.1962 1.38766L93.3921 3.03186L98.3877 0.853546Z"
              fill="#181A1F"/>
    </g>
    <defs>
        <filter id="filter0_b_7_2051" x="-19.2123" y="-19.2465" width="235.2" height="235.2"
                filterUnits="userSpaceOnUse" color-interpolation-filters="sRGB">
            <feFlood flood-opacity="0" result="BackgroundImageFix"/>
            <feGaussianBlur in="BackgroundImageFix" stdDeviation="10.05"/>
            <feComposite in2="SourceAlpha" operator="in" result="effect1_backgroundBlur_7_2051"/>
            <feBlend mode="normal" in="SourceGraphic" in2="effect1_backgroundBlur_7_2051" result="shape"/>
        </filter>
    </defs>
</svg>
